<?xml version="1.0" encoding="UTF-8"?>
<!DOCTYPE svg PUBLIC "-//W3C//DTD SVG 1.1//EN" "http://www.w3.org/Graphics/SVG/1.1/DTD/svg11.dtd">
<!-- Creator: CorelDRAW X7 -->
<svg xmlns="http://www.w3.org/2000/svg" xml:space="preserve" width="5.00001in" height="1.75686in" version="1.1" style="shape-rendering:geometricPrecision; text-rendering:geometricPrecision; image-rendering:optimizeQuality; fill-rule:evenodd; clip-rule:evenodd"
viewBox="0 0 5442 1912"
 xmlns:xlink="http://www.w3.org/1999/xlink">
 <defs>
  <style type="text/css">
   <![CDATA[
    .fil0 {fill:#124A63}
    .fil1 {fill:#1A627D}
    .fil3 {fill:#1D8195}
    .fil2 {fill:#CD495A}
    .fil4 {fill:#FEFEFE}
   ]]>
  </style>
 </defs>
 <g id="Layer_x0020_1">
  <metadata id="CorelCorpID_0Corel-Layer"/>
  <g id="_719522732832">
   <g>
    <polygon class="fil0" points="2896,124 3479,197 3481,320 "/>
    <polygon class="fil1" points="3477,193 3855,95 3825,457 3479,324 "/>
    <polygon class="fil2" points="3855,94 3809,625 4184,384 "/>
    <polygon class="fil1" points="3806,624 4471,202 4381,869 "/>
    <polygon class="fil3" points="4470,201 4487,198 4952,256 4944,604 4380,1010 4195,1263 3806,623 4380,868 "/>
    <polygon class="fil1" points="4952,256 5442,226 4944,605 "/>
    <polygon class="fil0" points="5300,0 5228,240 4960,257 4805,238 "/>
    <polygon class="fil1" points="4195,1262 4683,1912 4520,903 4380,1009 "/>
    <polygon class="fil0" points="4644,1673 4901,1772 4580,1273 "/>
   </g>
   <path class="fil4" d="M2266 714l-32 1c-12,-44 -29,-77 -50,-100 -21,-22 -46,-33 -75,-33 -35,0 -62,16 -80,49 -18,33 -27,82 -27,146 0,42 3,75 9,98 5,22 15,42 28,57 10,12 22,22 35,28 14,6 28,9 44,9 27,0 50,-9 70,-28 21,-20 38,-48 51,-85l35 10c-13,46 -34,81 -64,105 -31,24 -69,35 -115,35 -20,0 -39,-2 -56,-6 -18,-3 -33,-9 -47,-17 -36,-20 -64,-48 -83,-84 -20,-36 -29,-78 -29,-125 0,-35 5,-68 17,-97 11,-30 28,-55 50,-77 19,-19 41,-33 65,-43 24,-10 49,-14 76,-14 10,0 20,1 31,3 11,2 24,6 40,12 5,1 11,4 18,6 13,6 23,8 29,8 5,0 10,-2 13,-7 4,-5 6,-12 7,-22l33 0 7 171zm269 261c33,0 56,-14 70,-43 13,-29 20,-82 20,-158 0,-75 -7,-127 -21,-156 -13,-29 -36,-43 -69,-43 -32,0 -56,14 -69,43 -13,29 -20,81 -20,156 0,76 7,129 20,158 13,29 37,43 69,43zm0 31c-28,0 -54,-4 -79,-14 -24,-10 -46,-24 -65,-43 -22,-21 -39,-47 -51,-77 -11,-29 -17,-62 -17,-98 0,-35 6,-68 17,-97 12,-30 29,-55 51,-77 20,-19 42,-34 66,-43 24,-10 50,-14 78,-14 28,0 55,4 79,14 24,9 46,24 65,43 23,22 40,47 52,77 11,29 17,62 17,97 0,36 -6,68 -17,98 -12,30 -29,55 -51,77 -20,19 -42,33 -66,43 -24,10 -50,14 -79,14zm257 -10l0 -31c22,-2 36,-6 43,-12 6,-6 10,-19 10,-39l0 -279c0,-19 -4,-32 -10,-38 -7,-7 -21,-11 -43,-13l0 -31 415 0 9 149 -34 0c-8,-41 -24,-71 -48,-90 -25,-18 -61,-28 -108,-28 -30,0 -49,3 -58,9 -9,6 -14,20 -14,42l0 116 27 0c26,0 45,-7 58,-21 13,-14 21,-37 24,-67l30 0 0 208 -30 0c-3,-31 -11,-53 -24,-67 -13,-14 -32,-21 -58,-21l-27 0 0 131c0,22 5,36 14,42 9,6 29,9 60,9 51,0 90,-10 114,-30 25,-21 41,-54 46,-100l34 0 -9 161 -421 0zm643 -356l0 127 36 0c40,0 69,-8 87,-22 18,-15 27,-38 27,-69 0,-32 -7,-55 -22,-71 -14,-15 -37,-23 -67,-23 -24,0 -41,4 -49,11 -8,8 -12,23 -12,47zm-110 -5c0,-19 -3,-32 -9,-38 -7,-7 -21,-11 -43,-13l0 -31 239 0c64,0 112,10 143,30 31,20 47,49 47,89 0,44 -16,76 -48,96 -32,20 -83,30 -154,30l-65 0 0 116c0,20 4,33 11,39 8,6 25,10 51,12l0 31 -224 0 0 -31c22,-2 36,-6 43,-12 6,-6 9,-19 9,-39l0 -279z"/>
   <path class="fil4" d="M162 1641c0,20 4,33 11,39 7,6 23,10 47,12l0 31 -220 0 0 -31c22,-2 36,-6 43,-12 6,-6 9,-19 9,-39l0 -279c0,-20 -3,-33 -9,-39 -7,-6 -21,-10 -43,-12l0 -31 404 0 8 149 -33 0c-7,-40 -23,-70 -47,-89 -24,-19 -58,-29 -102,-29 -28,0 -46,3 -55,9 -9,6 -13,20 -13,42l0 116 25 0c26,0 45,-7 58,-21 13,-14 21,-37 23,-67l31 0 0 208 -31 0c-2,-31 -10,-53 -23,-67 -13,-14 -32,-21 -58,-21l-25 0 0 131zm492 61c33,0 56,-15 69,-43 13,-29 20,-82 20,-158 0,-75 -7,-127 -20,-156 -13,-29 -37,-43 -69,-43 -33,0 -56,14 -69,43 -14,29 -20,81 -20,156 0,76 6,129 20,158 13,28 36,43 69,43zm0 31c-29,0 -55,-4 -79,-14 -24,-10 -46,-24 -66,-43 -22,-21 -39,-47 -50,-77 -12,-29 -18,-62 -18,-98 0,-35 6,-68 18,-97 11,-30 28,-55 51,-77 19,-19 41,-34 65,-43 25,-10 51,-15 79,-15 28,0 54,5 78,15 25,9 46,24 66,43 22,22 39,47 51,77 12,29 17,62 17,97 0,36 -5,68 -17,98 -12,29 -28,55 -51,77 -19,19 -41,33 -65,43 -25,10 -51,14 -79,14zm275 -1l-10 -178 38 0c18,47 40,84 66,108 26,25 54,38 86,38 23,0 42,-6 57,-19 15,-12 22,-28 22,-47 0,-18 -5,-32 -17,-43 -12,-11 -32,-22 -62,-31l-65 -22c-35,-12 -62,-29 -81,-53 -19,-23 -29,-51 -29,-83 0,-39 13,-71 39,-96 26,-24 60,-37 101,-37 9,0 19,1 29,3 10,2 21,6 34,10 6,2 13,5 18,8 6,2 10,4 10,4 1,0 2,0 5,0 2,1 5,1 7,1 5,0 9,-2 13,-6 4,-4 6,-10 8,-18l27 0 8 142 -30 0c-18,-37 -37,-65 -58,-83 -21,-18 -44,-27 -69,-27 -23,0 -41,5 -54,15 -14,11 -21,24 -21,41 0,13 6,26 18,37 12,12 29,21 50,27l65 21c41,13 72,31 92,56 20,24 30,55 30,91 0,42 -13,77 -40,103 -28,27 -63,40 -106,40 -10,0 -21,-1 -32,-3 -11,-2 -25,-6 -41,-12 -6,-1 -15,-5 -28,-10 -12,-5 -21,-8 -27,-8 -6,0 -11,3 -15,8 -4,6 -6,13 -7,23l-31 0zm393 0l-9 -178 38 0c18,47 39,84 65,108 26,25 55,38 86,38 24,0 43,-6 58,-19 14,-12 22,-28 22,-47 0,-18 -6,-32 -18,-43 -11,-11 -32,-22 -62,-31l-65 -22c-35,-12 -62,-29 -81,-53 -19,-23 -29,-51 -29,-83 0,-39 13,-71 39,-96 26,-24 60,-37 102,-37 9,0 18,1 28,3 10,2 22,6 35,10 6,2 12,5 18,8 6,2 9,4 9,4 1,0 3,0 5,0 3,1 5,1 7,1 5,0 10,-2 13,-6 4,-4 7,-10 9,-18l27 0 7 142 -30 0c-17,-37 -36,-65 -57,-83 -21,-18 -44,-27 -70,-27 -22,0 -40,5 -54,15 -13,11 -20,24 -20,41 0,13 6,26 18,37 12,12 28,21 49,27l66 21c41,13 71,31 92,56 20,24 30,55 30,91 0,42 -14,77 -41,103 -27,27 -62,40 -106,40 -10,0 -21,-1 -32,-3 -11,-2 -24,-6 -41,-12 -5,-1 -15,-5 -27,-10 -13,-5 -22,-8 -28,-8 -5,0 -10,3 -14,8 -4,6 -7,13 -8,23l-31 0zm468 -421l-6 0 0 330c0,21 4,34 10,40 7,6 24,9 49,11l0 31 -155 0 0 -31c26,-2 42,-5 49,-11 7,-6 10,-19 10,-40l0 -279c0,-20 -3,-34 -10,-39 -7,-6 -23,-10 -49,-12l0 -31 193 0 97 298 92 -298 194 0 0 31c-25,2 -42,6 -49,12 -7,6 -10,19 -10,39l0 279c0,20 3,34 10,40 8,6 24,9 49,11l0 31 -224 0 0 -31c26,-2 42,-5 49,-11 7,-6 10,-19 10,-40l0 -330 -4 0 -126 412 -45 0 -134 -412zm507 412l0 -31c21,-2 36,-6 42,-12 7,-6 10,-19 10,-39l0 -279c0,-20 -3,-33 -10,-39 -6,-6 -21,-10 -42,-12l0 -31 414 0 9 149 -34 0c-7,-42 -24,-72 -48,-90 -24,-19 -61,-28 -108,-28 -30,0 -49,3 -58,9 -9,6 -13,20 -13,42l0 116 26 0c26,0 45,-7 58,-21 13,-14 21,-37 24,-67l30 0 0 208 -30 0c-3,-31 -11,-53 -24,-67 -13,-14 -32,-21 -58,-21l-26 0 0 131c0,22 4,36 13,42 9,6 29,9 60,9 52,0 90,-10 115,-30 24,-21 40,-54 46,-101l33 0 -9 162 -420 0zm480 0l0 -31c22,-2 37,-6 43,-12 6,-6 10,-19 10,-39l0 -279c0,-20 -4,-33 -10,-39 -6,-6 -21,-10 -43,-12l0 -31 415 0 9 149 -34 0c-7,-42 -24,-72 -48,-90 -25,-19 -61,-28 -108,-28 -30,0 -49,3 -58,9 -9,6 -13,20 -13,42l0 116 26 0c26,0 45,-7 58,-21 13,-14 21,-37 24,-67l30 0 0 208 -30 0c-3,-31 -11,-53 -24,-67 -13,-14 -32,-21 -58,-21l-26 0 0 131c0,22 4,36 13,42 9,6 29,9 60,9 51,0 90,-10 115,-30 24,-21 40,-54 45,-101l34 0 -9 162 -421 0zm620 -412l-8 0c-32,0 -57,11 -74,33 -17,22 -28,56 -33,104l-30 0 6 -168 389 0 7 168 -32 0c-5,-48 -15,-82 -32,-104 -17,-22 -42,-33 -74,-33l-9 0 0 330c0,19 4,32 11,38 7,7 24,11 51,13l0 31 -233 0 0 -31c27,-2 43,-6 51,-13 7,-6 10,-19 10,-38l0 -330z"/>
  </g>
 </g>
</svg>
